<svg width="394" height="26" viewBox="0 0 394 26" fill="none" xmlns="http://www.w3.org/2000/svg">
<path d="M371.574 26V0.0820312H380.207V26H371.574ZM381.574 26V20.8242H385.852V17.543H393.684V26H381.574Z" fill="white"/>
<path d="M347.027 20.7266H350.27V26H343.629L338.375 20.8242V5.25781L343.629 0.0820312H350.27V5.33594H347.027V20.7266ZM354.938 5.33594H351.637V0.0820312H358.336L363.57 5.25781V20.8242L358.336 26H351.637V20.7266H354.938V5.33594Z" fill="white"/>
<path d="M315.098 26H311.66L306.465 20.8242V5.25781L311.66 0.0820312H315.098V26ZM316.465 5.25781V0.0820312H325.664L330.84 5.25781V10.4727H322.207V5.25781H316.465ZM316.465 26V20.8242H322.207V17.0352H330.84V20.8242L325.664 26H316.465Z" fill="white"/>
<path d="M282.309 20.7266H285.551V26H278.91L273.656 20.8242V5.25781L278.91 0.0820312H285.551V5.33594H282.309V20.7266ZM290.219 5.33594H286.918V0.0820312H293.617L298.852 5.25781V20.8242L293.617 26H286.918V20.7266H290.219V5.33594Z" fill="white"/>
<path d="M251.219 7.07422H260.203V26H251.219V7.07422ZM244.461 0.0820312H266.961V5.72656H244.461V0.0820312Z" fill="white"/>
<path d="M221.184 20.7266H224.426V26H217.785L212.531 20.8242V5.25781L217.785 0.0820312H224.426V5.33594H221.184V20.7266ZM229.094 5.33594H225.793V0.0820312H232.492L237.727 5.25781V20.8242L232.492 26H225.793V20.7266H229.094V5.33594Z" fill="white"/>
<path d="M180.113 26V0.0820312H188.746V26H180.113ZM190.113 5.25781V0.0820312H199.977L205.172 5.25781V13.0312L201.188 17.0156L200.914 16.4688L192.809 17.543L193.121 18.2266H190.113V13.207H196.598V5.25781H190.113ZM206.051 26H196.832L193.121 18.2266H199.977L201.188 17.0156L206.051 26Z" fill="white"/>
<path d="M147.598 26V0.0820312H156.074V26H147.598ZM157.441 5.25781V0.0820312H167.129L172.305 5.25781V14.1445L167.129 19.3398H157.441V14.1445H163.711V5.25781H157.441Z" fill="white"/>
<path d="M124.715 26H115.535L99.832 0.0820312H108.953L124.715 26ZM99.832 26V2.54297L107.352 14.8672V26H99.832ZM124.715 0.0820312V23.5391L117.195 11.1562V0.0820312H124.715Z" fill="white"/>
<path d="M75.2852 20.7266H78.5273V26H71.8867L66.6328 20.8242V5.25781L71.8867 0.0820312H78.5273V5.33594H75.2852V20.7266ZM83.1953 5.33594H79.8945V0.0820312H86.5938L91.8281 5.25781V20.8242L86.5938 26H79.8945V20.7266H83.1953V5.33594Z" fill="white"/>
<path d="M44.2148 15.3555V26H35.582V0.0820312H44.2148V10.3555H52.4766V15.3555H44.2148ZM45.582 5.10156V0.0820312H59.0781V7.58203H50.9531V5.10156H45.582ZM45.582 26V20.8242H50.4453V18.2266H59.0781V26H45.582Z" fill="white"/>
<path d="M19.2969 23.168H10.8203L12.6172 18.0312H17.3047L10.3711 0.0820312H18.7891L29.1211 26H20.3906L19.2969 23.168ZM8.51562 26H0.175781L9.43359 1.25391L13.2617 11.5469L8.51562 26Z" fill="white"/>
</svg>
